# xmcd
#
# Track frame offsets:
#	150
#	15097
#	35199
#	54797
#	67798
#	78519
#	91134
#	105857
#	123044
#	138262
#	151239
#	164777
#	182387
#	197952
#	207175
#	223713
#	234336
#	249626
#	262449
#	278633
#	290650
#	296173
#	300925
#
# Disc length: 4348 seconds
#
# Revision: 0
# Processed by: cddbd v1.4PL0 Copyright (c) Steve Scherf et al.
# Submitted via: EasyCDDAExtractor 5.0.4.1
#
DISCID=3e10fa17
DTITLE=Amazing Rythm Aces - stacked deck/too stuffed to jump
DYEAR=1900
DGENRE=Country
TTITLE0=third rate romance
TTITLE1=the Ella B
TTITLE2=life´s railway to heaven
TTITLE3=the beautifull lie
TTITLE4=hit the nail on the head
TTITLE5=who will the next fool be
TTITLE6=amazing grace
TTITLE7=anything you want
TTITLE8=my tears still flow
TTITLE9=emma-jean
TTITLE10=why can´t i be satisfied
TTITLE11=king of the cowboys
TTITLE12=typical american boy
TTITLE13=if i just knew what to say
TTITLE14=the end is not insight
TTITLE15=same ol me
TTITLE16=these dreams of losing you
TTITLE17=i´ll be gone
TTITLE18=out of the snow
TTITLE19=fool for a woman
TTITLE20=a little italy rag
TTITLE21=dancing the night away
TTITLE22=????
EXTD=
EXTT0=
EXTT1=
EXTT2=
EXTT3=
EXTT4=
EXTT5=
EXTT6=
EXTT7=
EXTT8=
EXTT9=
EXTT10=
EXTT11=
EXTT12=
EXTT13=
EXTT14=
EXTT15=
EXTT16=
EXTT17=
EXTT18=
EXTT19=
EXTT20=
EXTT21=
EXTT22=
PLAYORDER=
